<svg xmlns="http://www.w3.org/2000/svg" viewBox="0 0 880 438" width="880" height="438" role="img" aria-label="Signals"><rect width="100%" height="100%" fill="#EEF3FB"/><svg x="10.0" y="90.2" width="420" height="257.5" viewBox="0 0 954 585" font-family="ui-sans-serif,-apple-system,Segoe UI,Helvetica,Arial,sans-serif"><defs><filter id="glow" x="-30%" y="-30%" width="160%" height="160%"><feGaussianBlur stdDeviation="4" result="b"/><feFlood flood-color="#1D4ED8" flood-opacity=".4"/><feComposite in2="b" operator="in"/><feMerge><feMergeNode/><feMergeNode in="SourceGraphic"/></feMerge></filter></defs><rect width="100%" height="100%" fill="#EEF3FB"/><text x="477.0" y="36" text-anchor="middle" font-size="26" font-weight="700" fill="#1D4ED8">Skill Radar</text><g transform="translate(497.3,325.0)"><polygon points="0.0,-212.0 165.7,-132.2 206.7,47.2 92.0,191.0 -92.0,191.0 -206.7,47.2 -165.7,-132.2" fill="none" stroke="#C3D0E6" stroke-width="1" opacity="1.00"/><polygon points="0.0,-159.0 124.3,-99.1 155.0,35.4 69.0,143.3 -69.0,143.3 -155.0,35.4 -124.3,-99.1" fill="none" stroke="#C3D0E6" stroke-width="1" opacity="0.90"/><polygon points="0.0,-106.0 82.9,-66.1 103.3,23.6 46.0,95.5 -46.0,95.5 -103.3,23.6 -82.9,-66.1" fill="none" stroke="#C3D0E6" stroke-width="1" opacity="0.80"/><polygon points="0.0,-53.0 41.4,-33.0 51.7,11.8 23.0,47.8 -23.0,47.8 -51.7,11.8 -41.4,-33.0" fill="none" stroke="#C3D0E6" stroke-width="1" opacity="0.70"/><line x1="0" y1="0" x2="0.0" y2="-212.0" stroke="#C3D0E6" stroke-width="1" opacity=".7"/><line x1="0" y1="0" x2="165.7" y2="-132.2" stroke="#C3D0E6" stroke-width="1" opacity=".7"/><line x1="0" y1="0" x2="206.7" y2="47.2" stroke="#C3D0E6" stroke-width="1" opacity=".7"/><line x1="0" y1="0" x2="92.0" y2="191.0" stroke="#C3D0E6" stroke-width="1" opacity=".7"/><line x1="0" y1="0" x2="-92.0" y2="191.0" stroke="#C3D0E6" stroke-width="1" opacity=".7"/><line x1="0" y1="0" x2="-206.7" y2="47.2" stroke="#C3D0E6" stroke-width="1" opacity=".7"/><line x1="0" y1="0" x2="-165.7" y2="-132.2" stroke="#C3D0E6" stroke-width="1" opacity=".7"/><g><animateTransform attributeName="transform" type="scale" values="0.04;1" dur="1.1s" calcMode="spline" keyTimes="0;1" keySplines="0.22 1 0.36 1" fill="freeze"/><polygon points="0.0,-180.2 139.2,-111.0 169.5,38.7 73.6,152.8 -73.6,152.8 -148.8,34.0 -116.0,-92.5" fill="#1D4ED8" fill-opacity="0.22" stroke="#1D4ED8" stroke-width="2.5" stroke-linejoin="round" filter="url(#glow)"/><circle cx="0.0" cy="-180.2" r="3.6" fill="#1D4ED8" stroke="#1D4ED8" stroke-width="1.2"/><circle cx="139.2" cy="-111.0" r="3.6" fill="#1D4ED8" stroke="#1D4ED8" stroke-width="1.2"/><circle cx="169.5" cy="38.7" r="3.6" fill="#1D4ED8" stroke="#1D4ED8" stroke-width="1.2"/><circle cx="73.6" cy="152.8" r="3.6" fill="#1D4ED8" stroke="#1D4ED8" stroke-width="1.2"/><circle cx="-73.6" cy="152.8" r="3.6" fill="#1D4ED8" stroke="#1D4ED8" stroke-width="1.2"/><circle cx="-148.8" cy="34.0" r="3.6" fill="#1D4ED8" stroke="#1D4ED8" stroke-width="1.2"/><circle cx="-116.0" cy="-92.5" r="3.6" fill="#1D4ED8" stroke="#1D4ED8" stroke-width="1.2"/></g><text x="0.0" y="-253.0" text-anchor="middle" font-size="22" font-weight="600" fill="#0B1530">Full-Stack Dev</text><text x="193.9" y="-159.6" text-anchor="start" font-size="22" font-weight="600" fill="#0B1530">Backend / APIs</text><text x="241.8" y="59.2" text-anchor="start" font-size="22" font-weight="600" fill="#0B1530">React / Next.js</text><text x="107.6" y="246.4" text-anchor="start" font-size="22" font-weight="600" fill="#0B1530">TypeScript</text><text x="-107.6" y="246.4" text-anchor="end" font-size="22" font-weight="600" fill="#0B1530">Python / FastAPI</text><text x="-241.8" y="59.2" text-anchor="end" font-size="22" font-weight="600" fill="#0B1530">AI / RAG Pipelines</text><text x="-193.9" y="-159.6" text-anchor="end" font-size="22" font-weight="600" fill="#0B1530">Cloud &amp; DevOps</text></g></svg><svg x="450.0" y="24.1" width="420" height="389.8" viewBox="0 0 681 632" font-family="ui-sans-serif,-apple-system,Segoe UI,Helvetica,Arial,sans-serif"><defs><filter id="glow" x="-30%" y="-30%" width="160%" height="160%"><feGaussianBlur stdDeviation="4" result="b"/><feFlood flood-color="#1D4ED8" flood-opacity=".4"/><feComposite in2="b" operator="in"/><feMerge><feMergeNode/><feMergeNode in="SourceGraphic"/></feMerge></filter></defs><rect width="100%" height="100%" fill="#EEF3FB"/><text x="340.5" y="36" text-anchor="middle" font-size="26" font-weight="700" fill="#1D4ED8">Language &amp; Stack</text><g transform="translate(320.3,325.0)"><polygon points="0.0,-212.0 183.6,-106.0 183.6,106.0 0.0,212.0 -183.6,106.0 -183.6,-106.0" fill="none" stroke="#C3D0E6" stroke-width="1" opacity="1.00"/><polygon points="0.0,-159.0 137.7,-79.5 137.7,79.5 0.0,159.0 -137.7,79.5 -137.7,-79.5" fill="none" stroke="#C3D0E6" stroke-width="1" opacity="0.90"/><polygon points="0.0,-106.0 91.8,-53.0 91.8,53.0 0.0,106.0 -91.8,53.0 -91.8,-53.0" fill="none" stroke="#C3D0E6" stroke-width="1" opacity="0.80"/><polygon points="0.0,-53.0 45.9,-26.5 45.9,26.5 0.0,53.0 -45.9,26.5 -45.9,-26.5" fill="none" stroke="#C3D0E6" stroke-width="1" opacity="0.70"/><line x1="0" y1="0" x2="0.0" y2="-212.0" stroke="#C3D0E6" stroke-width="1" opacity=".7"/><line x1="0" y1="0" x2="183.6" y2="-106.0" stroke="#C3D0E6" stroke-width="1" opacity=".7"/><line x1="0" y1="0" x2="183.6" y2="106.0" stroke="#C3D0E6" stroke-width="1" opacity=".7"/><line x1="0" y1="0" x2="0.0" y2="212.0" stroke="#C3D0E6" stroke-width="1" opacity=".7"/><line x1="0" y1="0" x2="-183.6" y2="106.0" stroke="#C3D0E6" stroke-width="1" opacity=".7"/><line x1="0" y1="0" x2="-183.6" y2="-106.0" stroke="#C3D0E6" stroke-width="1" opacity=".7"/><g><animateTransform attributeName="transform" type="scale" values="0.04;1" dur="1.1s" calcMode="spline" keyTimes="0;1" keySplines="0.22 1 0.36 1" fill="freeze"/><polygon points="0.0,-180.2 146.9,-84.8 150.5,86.9 0.0,161.1 -150.5,86.9 -150.5,-86.9" fill="#1D4ED8" fill-opacity="0.22" stroke="#1D4ED8" stroke-width="2.5" stroke-linejoin="round" filter="url(#glow)"/><circle cx="0.0" cy="-180.2" r="3.6" fill="#1D4ED8" stroke="#1D4ED8" stroke-width="1.2"/><circle cx="146.9" cy="-84.8" r="3.6" fill="#1D4ED8" stroke="#1D4ED8" stroke-width="1.2"/><circle cx="150.5" cy="86.9" r="3.6" fill="#1D4ED8" stroke="#1D4ED8" stroke-width="1.2"/><circle cx="0.0" cy="161.1" r="3.6" fill="#1D4ED8" stroke="#1D4ED8" stroke-width="1.2"/><circle cx="-150.5" cy="86.9" r="3.6" fill="#1D4ED8" stroke="#1D4ED8" stroke-width="1.2"/><circle cx="-150.5" cy="-86.9" r="3.6" fill="#1D4ED8" stroke="#1D4ED8" stroke-width="1.2"/></g><text x="0.0" y="-253.0" text-anchor="middle" font-size="22" font-weight="600" fill="#0B1530">RAG</text><text x="0.0" y="-231.0" text-anchor="middle" font-size="18" fill="#5B6B8A">85</text><text x="214.8" y="-129.0" text-anchor="start" font-size="22" font-weight="600" fill="#0B1530">TypeScript</text><text x="214.8" y="-107.0" text-anchor="start" font-size="18" fill="#5B6B8A">80</text><text x="214.8" y="147.0" text-anchor="start" font-size="22" font-weight="600" fill="#0B1530">Python</text><text x="214.8" y="169.0" text-anchor="start" font-size="18" fill="#5B6B8A">82</text><text x="0.0" y="271.0" text-anchor="middle" font-size="22" font-weight="600" fill="#0B1530">PostgreSQL</text><text x="0.0" y="293.0" text-anchor="middle" font-size="18" fill="#5B6B8A">76</text><text x="-214.8" y="147.0" text-anchor="end" font-size="22" font-weight="600" fill="#0B1530">Node.js</text><text x="-214.8" y="169.0" text-anchor="end" font-size="18" fill="#5B6B8A">82</text><text x="-214.8" y="-129.0" text-anchor="end" font-size="22" font-weight="600" fill="#0B1530">React</text><text x="-214.8" y="-107.0" text-anchor="end" font-size="18" fill="#5B6B8A">82</text></g></svg><path d="M440 24V414" stroke="#C3D0E6"/><rect x="1" y="1" width="878" height="436" fill="none" stroke="#D1D9E0" stroke-width="2"/></svg>